<?xml version="1.0" standalone="no"?>
<!DOCTYPE svg PUBLIC "-//W3C//DTD SVG 20010904//EN"
 "http://www.w3.org/TR/2001/REC-SVG-20010904/DTD/svg10.dtd">
<svg version="1.0" xmlns="http://www.w3.org/2000/svg"
 width="473.000000pt" height="465.000000pt" viewBox="0 0 473.000000 465.000000"
 preserveAspectRatio="xMidYMid meet">
<metadata>
Created by potrace 1.10, written by Peter Selinger 2001-2011
</metadata>
<g transform="translate(0.000000,465.000000) scale(0.050000,-0.050000)"
fill="#20124d" stroke="none">
<path d="M4566 8683 c-64 -54 -215 -190 -336 -302 -343 -319 -335 -317 -910
-219 -530 89 -500 113 -632 -504 -109 -510 -43 -434 -627 -738 -243 -126 -441
-236 -441 -244 0 -8 73 -179 162 -380 187 -421 238 -551 238 -603 0 -20 -103
-238 -229 -485 l-230 -448 95 -69 c52 -38 189 -125 304 -194 694 -410 717
-475 228 -638 -381 -127 -538 -241 -1120 -812 -230 -225 -294 -301 -346 -407
-584 -1207 1711 -2187 3862 -1648 1381 345 1917 1268 1162 2000 -145 141 -160
161 -112 153 31 -5 192 -35 359 -67 439 -85 393 -141 549 666 l64 329 489 244
c465 233 488 247 477 294 -7 26 -107 247 -222 490 l-208 442 250 487 c186 363
243 491 224 503 -14 9 -223 130 -465 267 -388 221 -441 257 -455 310 -8 33
-47 276 -87 540 -39 263 -75 483 -80 488 -4 4 -240 -20 -524 -54 l-515 -61
-340 334 c-187 184 -369 355 -404 379 l-63 45 -117 -98z m462 -562 l343 -340
469 57 c259 31 476 51 484 44 7 -7 41 -179 75 -384 58 -350 101 -539 136 -590
8 -13 155 -101 325 -197 171 -96 348 -197 394 -223 l85 -49 -210 -421 c-243
-489 -241 -478 -116 -736 114 -237 267 -582 267 -604 0 -9 -191 -112 -425
-229 -234 -117 -431 -219 -439 -226 -8 -8 -51 -192 -96 -410 -87 -424 -121
-533 -167 -533 -96 0 -752 127 -827 160 -49 22 -142 79 -206 126 -167 127
-488 286 -696 346 -36 10 16 106 146 268 280 350 184 421 -124 90 -250 -268
-345 -315 -495 -247 -68 31 -70 27 77 193 261 297 182 360 -113 90 -219 -202
-261 -226 -397 -226 -152 0 -153 7 -20 158 137 155 174 218 146 246 -38 38
-115 -11 -286 -185 -201 -204 -291 -256 -468 -273 -144 -13 -139 -18 -190 174
-35 131 -124 203 -526 428 l-354 198 48 82 c162 277 411 783 401 814 -6 20
-96 222 -200 450 -104 228 -184 420 -178 426 7 7 207 111 445 232 l434 220 44
230 c131 672 142 693 359 673 111 -10 628 -101 709 -124 29 -9 568 439 696
578 75 81 85 75 450 -286z m-968 -4358 c961 -170 1368 -617 906 -994 -690
-562 -2620 -536 -3265 44 -452 406 139 865 1279 995 191 22 860 -6 1080 -45z
m-2776 -1043 c-15 -360 111 -550 491 -746 1094 -564 3294 -336 3616 374 36 78
109 458 109 564 0 34 229 -243 283 -342 265 -491 -146 -994 -1074 -1316 -585
-203 -1750 -233 -2432 -63 -1267 317 -1755 995 -1157 1607 176 181 175 182
164 -78z"/>
<path d="M4269 7619 c-441 -169 -530 -648 -182 -973 161 -151 162 -138 -5
-152 -176 -15 -302 -111 -302 -231 0 -58 -90 -252 -151 -325 -121 -144 -60
-278 128 -278 82 0 96 27 110 220 27 352 82 460 234 460 128 0 141 -22 160
-277 23 -316 105 -455 282 -477 144 -19 317 -166 317 -269 0 -49 -330 -137
-510 -137 -227 0 -282 -100 -190 -347 63 -166 154 -217 328 -185 90 17 103 59
63 214 -37 146 -28 164 105 197 356 90 416 221 230 504 l-87 133 121 115 c127
121 244 209 278 209 66 0 153 -374 136 -582 -13 -154 -10 -158 147 -158 202 0
404 119 431 255 29 143 -222 256 -322 145 -59 -65 -87 -48 -121 75 -115 419
-184 474 -428 342 -181 -98 -174 -100 -205 49 -29 137 -31 135 139 153 238 27
314 103 345 352 13 98 43 205 80 285 73 156 73 165 8 242 -135 161 -341 4
-248 -188 73 -152 36 -458 -61 -511 -102 -54 -359 -41 -359 19 0 9 49 84 110
167 140 193 150 220 172 495 10 127 21 252 23 279 5 44 -6 51 -105 71 -60 13
-163 52 -228 87 -141 76 -285 83 -443 22z"/>
<path d="M3668 3606 c-96 -103 -89 -107 432 -257 138 -39 322 -102 410 -139
204 -87 256 -99 308 -71 173 93 -228 321 -812 462 -295 71 -277 71 -338 5z"/>
</g>
</svg>
